<svg xmlns="http://www.w3.org/2000/svg" width="500" height="500" viewBox="0 0 500 500"><g class="vf-stave" id="vf-auto1000"><path stroke-width="1" stroke-dasharray="none" fill="none" stroke="#999999" d="M10 80L410 80"></path><path stroke-width="1" stroke-dasharray="none" fill="none" stroke="#999999" d="M10 90L410 90"></path><path stroke-width="1" stroke-dasharray="none" fill="none" stroke="#999999" d="M10 100L410 100"></path><path stroke-width="1" stroke-dasharray="none" fill="none" stroke="#999999" d="M10 110L410 110"></path><path stroke-width="1" stroke-dasharray="none" fill="none" stroke="#999999" d="M10 120L410 120"></path><rect x="10" y="79.5" width="1" height="41" fill="black"></rect><rect x="410" y="79.5" width="1" height="41" fill="black"></rect><g class="vf-clef" id="vf-auto1003"><path stroke-width="0.3" stroke-dasharray="none" fill="black" stroke="none" d="M28.711104 95.844288C28.660416 95.41344,28.711104 95.388096,28.9392 95.16C32.892864 91.48512,35.883456 86.847168,35.883456 81.246144C35.883456 78.078144,34.996415999999996 74.93548799999999,33.50112 72.75590399999999C32.943552 71.944896,32.005824000000004 70.931136,31.60032 70.931136C31.09344 70.931136,29.95296 71.868864,29.243328 72.67987199999999C26.53152 75.670464,25.64448 80.232384,25.64448 84.033984C25.64448 86.137536,25.923264000000003 88.51987199999999,26.176704 90.015168C26.252736 90.446016,26.278080000000003 90.522048,25.847231999999998 90.902208C20.57568 95.236032,15 100.456896,15 107.832C15 114.168,19.333824 120.199872,28.280256 120.199872C29.116608 120.199872,30.079680000000003 120.12384,30.814656 119.971776C31.194816000000003 119.89574400000001,31.270848 119.8704,31.346880000000002 120.301248C31.777728 122.759616,32.335296 125.927616,32.335296 127.651008C32.335296 133.04928,28.685760000000002 133.708224,26.53152 133.708224C24.554688 133.708224,23.61696 133.125312,23.61696 132.643776C23.61696 132.390336,23.946432 132.28896,24.782784 132.010176C25.923264000000003 131.680704,27.215808000000003 130.717632,27.215808000000003 128.588736C27.215808000000003 126.58656,25.948608 124.863168,23.718336 124.863168C21.285312 124.863168,19.81536 126.814656,19.81536 129.070272C19.81536 131.427264,21.234624 135.026112,26.759616 135.026112C29.19264 135.026112,33.931968 133.910976,33.931968 127.72704C33.931968 125.62348800000001,33.27302400000001 122.176704,32.892864 119.89574400000001C32.816832000000005 119.464896,32.842176 119.515584,33.349056000000004 119.287488C37.04928 117.817536,39.482304 114.725568,39.482304 110.594496C39.482304 105.9312,36.060864 101.800128,30.687936 101.800128C29.750208 101.800128,29.750208 101.800128,29.623488000000002 101.141184M32.157888 76.582848C33.349056000000004 76.582848,34.337472000000005 77.571264,34.337472000000005 79.57344C34.337472000000005 83.62848,30.865344 86.9232,28.001472 89.432256C27.748032000000002 89.660352,27.595968 89.609664,27.519936 89.128128C27.367872 88.1904,27.29184 86.948544,27.29184 85.78272C27.29184 80.08032,29.927616 76.582848,32.157888 76.582848M28.17888 101.445312C28.280256 102.1296,28.280256 102.10425599999999,27.621312000000003 102.307008C24.427968 103.3968,22.324416 106.286016,22.324416 109.403328C22.324416 112.672704,24.047808 115.004352,26.53152 115.866048C26.835648 115.967424,27.266496 116.0688,27.519936 116.0688C27.798720000000003 116.0688,27.950784 115.891392,27.950784 115.663296C27.950784 115.409856,27.672 115.30848,27.41856 115.207104C25.872576000000002 114.54816,24.782784 112.976832,24.782784 111.304128C24.782784 109.200576,26.202048 107.654592,28.43232 107.020992C29.015232 106.868928,29.091264000000002 106.919616,29.167296 107.32512L30.992064 118.19769600000001C31.068096 118.6032,31.017408 118.6032,30.485184000000004 118.704576C29.902272000000004 118.805952,29.167296 118.881984,28.43232 118.881984C22.045632 118.881984,17.91456 115.33382399999999,17.91456 110.265024C17.91456 108.110784,18.29472 105.221568,21.310656 101.800128C23.515584 99.367104,25.188288 97.998528,26.886336 96.629952C27.266496 96.325824,27.342528 96.37651199999999,27.41856 96.756672M30.687936 107.249088C30.611904000000003 106.792896,30.662592000000004 106.69152,31.09344 106.742208C34.058688000000004 106.995648,36.49171200000001 109.47936,36.49171200000001 112.672704C36.49171200000001 114.979008,35.097792 116.82912,33.070272 117.868224C32.639424000000005 118.070976,32.563392 118.070976,32.48736 117.640128"></path></g><g class="vf-timesignature" id="vf-auto1005"><path stroke-width="0.3" stroke-dasharray="none" fill="black" stroke="none" d="M68.75408 92.61936L68.75408 85.05504C68.75408 84.78576,68.7296 84.46752000000001,68.33792 84.46752000000001C68.01968 84.46752000000001,67.84832 84.54096,67.628 84.78576L64.27423999999999 88.82496C64.15183999999999 89.0208,63.956 89.21664,63.956 89.65728L63.956 92.61936L59.20688 92.61936C62.02208 90.22032,67.67696 82.21536,67.77488 81.77472L67.79936 81.6768C67.79936 81.35856,67.55456 81.16272000000001,67.28528 81.16272000000001C66.96704 81.16272000000001,65.52271999999999 81.21168,64.88624 81.21168C64.24976 81.21168,62.65856 81.16272000000001,62.38928 81.16272000000001C62.071039999999996 81.16272000000001,61.58144 81.26064,61.58144 81.82368C61.58144 86.18112,58.10528 91.1016,57.05264 92.5704L56.8568 92.86416C56.8568 92.86416,56.8568 92.88864,56.8568 92.88864L56.80784 92.9376C56.7344 93.10896,56.70992 93.23136,56.70992 93.35376C56.70992 93.69648,56.9792 93.94128,57.41984 93.94128L63.956 93.94128L63.956 96.16896C63.956 97.12368,63.19712 97.39296,62.56064 97.39296C61.9976 97.39296,61.7528 97.7112,61.7528 98.0784C61.7528 98.42112,61.8752 98.8128,62.413759999999996 98.8128L69.92912 98.8128C70.27184 98.8128,70.63904 98.568,70.63904 98.0784C70.63904 97.58879999999999,70.19839999999999 97.36848,69.85568 97.36848C69.51295999999999 97.36848,68.75408 97.14816,68.75408 96.02208L68.75408 93.94128L71.32448 93.94128C71.69167999999999 93.94128,71.86304 93.69648,71.86304 93.28032C71.86304 92.86416,71.71616 92.61936,71.32448 92.61936"></path><path stroke-width="0.3" stroke-dasharray="none" fill="black" stroke="none" d="M68.75408 112.61936L68.75408 105.05504C68.75408 104.78576,68.7296 104.46752000000001,68.33792 104.46752000000001C68.01968 104.46752000000001,67.84832 104.54096,67.628 104.78576L64.27423999999999 108.82496C64.15183999999999 109.0208,63.956 109.21664,63.956 109.65728L63.956 112.61936L59.20688 112.61936C62.02208 110.22032,67.67696 102.21536,67.77488 101.77472L67.79936 101.6768C67.79936 101.35856,67.55456 101.16272000000001,67.28528 101.16272000000001C66.96704 101.16272000000001,65.52271999999999 101.21168,64.88624 101.21168C64.24976 101.21168,62.65856 101.16272000000001,62.38928 101.16272000000001C62.071039999999996 101.16272000000001,61.58144 101.26064,61.58144 101.82368C61.58144 106.18112,58.10528 111.1016,57.05264 112.5704L56.8568 112.86416C56.8568 112.86416,56.8568 112.88864,56.8568 112.88864L56.80784 112.9376C56.7344 113.10896,56.70992 113.23136,56.70992 113.35376C56.70992 113.69648,56.9792 113.94128,57.41984 113.94128L63.956 113.94128L63.956 116.16896C63.956 117.12368,63.19712 117.39296,62.56064 117.39296C61.9976 117.39296,61.7528 117.7112,61.7528 118.0784C61.7528 118.42112,61.8752 118.8128,62.413759999999996 118.8128L69.92912 118.8128C70.27184 118.8128,70.63904 118.568,70.63904 118.0784C70.63904 117.58879999999999,70.19839999999999 117.36848,69.85568 117.36848C69.51295999999999 117.36848,68.75408 117.14816,68.75408 116.02208L68.75408 113.94128L71.32448 113.94128C71.69167999999999 113.94128,71.86304 113.69648,71.86304 113.28032C71.86304 112.86416,71.71616 112.61936,71.32448 112.61936"></path></g></g><g class="vf-stavenote" id="vf-auto1009"><g class="vf-note" pointer-events="bounding-box"><g class="vf-notehead" pointer-events="bounding-box"><path stroke-width="0.3" stroke-dasharray="none" fill="black" stroke="none" d="M87.08432 100.0544C90.67856 100.0544,95.08712 96.74096,95.08712 93.3152C95.08712 91.23728,93.45848000000001 89.9456,91.15592000000001 89.9456C86.71928 89.9456,83.15312 93.23096,83.15312 96.6848C83.15312 98.7908,84.89408 100.0544,87.08432 100.0544"></path></g></g><g class="vf-modifiers"></g></g><g class="vf-stavenote" id="vf-auto1015"><g class="vf-note" pointer-events="bounding-box"><g class="vf-notehead" pointer-events="bounding-box"><path stroke-width="0.3" stroke-dasharray="none" fill="black" stroke="none" d="M137.85786597235625 100.0544C141.45210597235626 100.0544,145.86066597235626 96.74096,145.86066597235626 93.3152C145.86066597235626 91.23728,144.23202597235627 89.9456,141.92946597235627 89.9456C137.49282597235626 89.9456,133.92666597235626 93.23096,133.92666597235626 96.6848C133.92666597235626 98.7908,135.66762597235626 100.0544,137.85786597235625 100.0544"></path></g></g><g class="vf-modifiers"></g></g><g class="vf-stavenote" id="vf-auto1021"><g class="vf-note" pointer-events="bounding-box"><g class="vf-notehead" pointer-events="bounding-box"><path stroke-width="0.3" stroke-dasharray="none" fill="black" stroke="none" d="M188.63141194471254 105.0544C192.22565194471255 105.0544,196.63421194471255 101.74096,196.63421194471255 98.3152C196.63421194471255 96.23728,195.00557194471256 94.9456,192.70301194471256 94.9456C188.26637194471255 94.9456,184.70021194471255 98.23096,184.70021194471255 101.6848C184.70021194471255 103.7908,186.44117194471255 105.0544,188.63141194471254 105.0544"></path></g></g><g class="vf-modifiers"></g></g><g class="vf-stavenote" id="vf-auto1027"><g class="vf-note" pointer-events="bounding-box"><g class="vf-notehead" pointer-events="bounding-box"><path stroke-width="0.3" stroke-dasharray="none" fill="black" stroke="none" d="M278.9209633220184 100.0544C282.5152033220184 100.0544,286.92376332201843 96.74096,286.92376332201843 93.3152C286.92376332201843 91.23728,285.2951233220184 89.9456,282.9925633220184 89.9456C278.55592332201843 89.9456,274.9897633220184 93.23096,274.9897633220184 96.6848C274.9897633220184 98.7908,276.7307233220184 100.0544,278.9209633220184 100.0544"></path></g></g><g class="vf-modifiers"></g></g><g class="vf-stavenote" id="vf-auto1033"><g class="vf-note" pointer-events="bounding-box"><g class="vf-notehead" pointer-events="bounding-box"><path stroke-width="0.3" stroke-dasharray="none" fill="black" stroke="none" d="M369.2105146993242 105.0544C372.80475469932423 105.0544,377.21331469932426 101.74096,377.21331469932426 98.3152C377.21331469932426 96.23728,375.58467469932424 94.9456,373.2821146993242 94.9456C368.84547469932426 94.9456,365.27931469932423 98.23096,365.27931469932423 101.6848C365.27931469932423 103.7908,367.0202746993242 105.0544,369.2105146993242 105.0544"></path></g><g class="vf-notehead" pointer-events="bounding-box"><path stroke-width="0.3" stroke-dasharray="none" fill="black" stroke="none" d="M380.39451469932425 105.0544C383.98875469932426 105.0544,388.3973146993243 101.74096,388.3973146993243 98.3152C388.3973146993243 96.23728,386.76867469932427 94.9456,384.46611469932424 94.9456C380.0294746993243 94.9456,376.46331469932426 98.23096,376.46331469932426 101.6848C376.46331469932426 103.7908,378.20427469932423 105.0544,380.39451469932425 105.0544"></path></g><g class="vf-notehead" pointer-events="bounding-box"><path stroke-width="0.3" stroke-dasharray="none" fill="black" stroke="none" d="M369.2105146993242 100.0544C372.80475469932423 100.0544,377.21331469932426 96.74096,377.21331469932426 93.3152C377.21331469932426 91.23728,375.58467469932424 89.9456,373.2821146993242 89.9456C368.84547469932426 89.9456,365.27931469932423 93.23096,365.27931469932423 96.6848C365.27931469932423 98.7908,367.0202746993242 100.0544,369.2105146993242 100.0544"></path></g></g><g class="vf-modifiers"></g></g><g class="vf-stem" id="vf-auto1009-stem"><path stroke-width="1.5" stroke-dasharray="none" fill="none" stroke="black" d="M94.33712 93L94.33712 59.48066135069109"></path></g><g class="vf-stem" id="vf-auto1015-stem"><path stroke-width="1.5" stroke-dasharray="none" fill="none" stroke="black" d="M145.11066597235626 93L145.11066597235626 60.75"></path></g><g class="vf-stem" id="vf-auto1021-stem"><path stroke-width="1.5" stroke-dasharray="none" fill="none" stroke="black" d="M195.88421194471255 98L195.88421194471255 62.01933864930891"></path></g><g class="vf-beam"><path stroke-width="0.3" stroke-dasharray="none" fill="black" stroke="none" d="M93.58712 58.711911350691096L93.58712 63.711911350691096L196.13421194471255 66.2505886493089L196.13421194471255 61.2505886493089Z"></path></g><g class="vf-beam"><path stroke-width="0.3" stroke-dasharray="none" fill="black" stroke="none" d="M93.58712 66.2119113506911L93.58712 71.2119113506911L145.36066597235626 72.48125L145.36066597235626 67.48125Z"></path></g><g class="vf-stem" id="vf-auto1027-stem"><path stroke-width="1.5" stroke-dasharray="none" fill="none" stroke="black" d="M286.17376332201843 93L286.17376332201843 60.75"></path></g><g class="vf-stem" id="vf-auto1033-stem"><path stroke-width="1.5" stroke-dasharray="none" fill="none" stroke="black" d="M376.46331469932426 98L376.46331469932426 60.75"></path></g><g class="vf-beam"><path stroke-width="0.3" stroke-dasharray="none" fill="black" stroke="none" d="M285.42376332201843 60L285.42376332201843 65L376.71331469932426 65L376.71331469932426 60Z"></path></g></svg>
